<svg class="prefix__text-[#18181B] prefix__dark:text-[#FFFFFF] prefix__h-6" fill="none" viewBox="0 0 275 84"><path d="M0 20.948v25.098c0 1.187.61 2.289 1.613 2.916l17.115 10.7c2.28 1.427 5.234-.219 5.234-2.915V35.65c0-1.214.639-2.337 1.68-2.956l10.439-6.205v54.07c0 2.687 2.936 4.334 5.217 2.927l17.665-10.9a3.438 3.438 0 001.63-2.927V17.736c0-2.674-2.91-4.323-5.192-2.942L36.08 26.49V3.441c0-2.667-2.897-4.317-5.179-2.95L1.67 17.998A3.438 3.438 0 000 20.948zM125.354 46.106c0-7.117-2.912-10.402-8.738-10.402-6.671 0-11.369 4.471-11.369 14.508v22.995H93.22V9.333h12.027v23.36c2.913-4.745 7.705-7.118 14.282-7.118 11.181 0 17.758 6.844 17.758 18.341v29.29h-11.933v-27.1zM167.054 74.667c-14.94 0-24.429-9.673-24.429-24.546 0-14.69 9.396-24.546 24.429-24.546 16.255 0 25.087 11.498 22.644 27.649h-35.047c.658 7.664 5.168 12.044 12.403 12.044 5.919 0 9.49-3.011 10.429-6.022h11.933c-1.879 8.942-10.147 15.42-22.362 15.42zm-12.121-29.382h23.114c-.094-6.296-4.228-10.585-11.275-10.585-6.295 0-10.711 3.65-11.839 10.585zM196.257 38.715c0-7.574 4.228-11.68 12.309-11.68h15.409v9.855h-15.691v36.317h-12.027V38.715zM250.289 74.667c-15.222 0-24.9-9.764-24.9-24.546s9.678-24.546 24.9-24.546c15.033 0 24.711 9.764 24.711 24.546s-9.678 24.546-24.711 24.546zm0-9.946c7.516 0 12.496-5.749 12.496-14.6 0-8.851-4.98-14.69-12.496-14.69-7.611 0-12.591 5.839-12.591 14.69 0 8.851 4.98 14.6 12.591 14.6z" fill="currentColor"/></svg>